<svg width="17" height="21" viewBox="0 0 17 21" fill="none" xmlns="http://www.w3.org/2000/svg">
<path opacity="0.900985" d="M13.552 11.8047V12.3074L13.9555 12.6073C15.1882 13.5235 15.8167 14.6354 15.7997 15.7322L15.7995 15.7399V15.7477V17.8944H10.4869H9.4869V18.8944C9.4869 19.5051 8.99362 20 8.39994 20C7.81605 20 7.31299 19.5153 7.31299 18.8944V17.8944H6.31299H1V15.7491C1 14.6292 1.61977 13.5145 2.84122 12.6076L3.24508 12.3077V11.8047V8.87335C3.24508 6.58896 4.6857 4.66703 6.69928 3.95312L7.36511 3.71705V3.01061V2.05161C7.36511 1.46773 7.83148 1 8.39853 1C8.95517 1 9.43161 1.45757 9.43161 2.05161V3.01061V3.71709L10.0975 3.95314C12.1114 4.66706 13.552 6.58899 13.552 8.87335V11.8047Z" fill="white" stroke="#35B2F9" stroke-width="2"/>
</svg>
