<svg width="22" height="22" viewBox="0 0 22 22" fill="none" xmlns="http://www.w3.org/2000/svg">
<path fill-rule="evenodd" clip-rule="evenodd" d="M19.9962 5.43706C19.9833 5.40711 19.9729 5.37656 19.9558 5.34722C19.9289 5.30078 19.8972 5.25922 19.8642 5.2195C18.9548 3.70272 17.6843 2.43283 16.1682 1.52411C16.1291 1.49111 16.0875 1.45933 16.0417 1.43306C16.0123 1.41594 15.9818 1.40556 15.9512 1.39211C14.3972 0.510278 12.6054 0 10.6944 0C8.78289 0 6.99111 0.510278 5.43706 1.39272C5.40711 1.40556 5.37594 1.41594 5.34722 1.43306C5.30139 1.45933 5.25983 1.49111 5.22072 1.52411C3.70394 2.43283 2.43344 3.70333 1.52411 5.22011C1.49111 5.25983 1.45933 5.30078 1.43306 5.34722C1.41594 5.37656 1.40556 5.40711 1.39272 5.43706C0.510278 6.99172 0 8.7835 0 10.6944C0 16.5911 4.79783 21.3889 10.6944 21.3889C16.5911 21.3889 21.3889 16.5911 21.3889 10.6944C21.3889 8.7835 20.8786 6.99172 19.9962 5.43706ZM10.6943 19.5556C6.11769 19.5556 2.34103 16.068 1.88086 11.6111H2.84275C3.34875 11.6111 3.75941 11.2005 3.75941 10.6945C3.75941 10.1885 3.34875 9.77779 2.84275 9.77779H1.88086C1.97925 8.8269 2.23408 7.92307 2.6093 7.08523L3.43614 7.56251C3.58036 7.64623 3.73803 7.68535 3.89386 7.68535C4.21041 7.68535 4.51841 7.52157 4.6883 7.22701C4.9413 6.78823 4.79097 6.22785 4.3528 5.97485L3.53086 5.50001C4.08025 4.74468 4.74453 4.0804 5.49986 3.53101L5.97408 4.35296C6.14397 4.6469 6.45258 4.81129 6.76914 4.81129C6.92497 4.81129 7.08203 4.77218 7.22686 4.68846C7.66503 4.43546 7.81536 3.87507 7.56236 3.43629L7.08508 2.60946C7.92353 2.23362 8.82675 1.9794 9.77764 1.88101V2.84229C9.77764 3.34829 10.1877 3.75896 10.6943 3.75896C11.2009 3.75896 11.611 3.34829 11.611 2.84229V1.88101C12.5619 1.9794 13.4651 2.23362 14.3035 2.60946L13.8262 3.43629C13.5732 3.87507 13.7236 4.43546 14.1617 4.68846C14.3066 4.77218 14.4636 4.81129 14.6195 4.81129C14.936 4.81129 15.2446 4.6469 15.4145 4.35296L15.8887 3.53101C16.6441 4.0804 17.3084 4.74468 17.8577 5.50001L17.0358 5.97485C16.5976 6.22785 16.4473 6.78823 16.7003 7.22701C16.8702 7.52157 17.1782 7.68535 17.4947 7.68535C17.6506 7.68535 17.8082 7.64623 17.9525 7.56251L18.7793 7.08523C19.1545 7.92307 19.4094 8.8269 19.5077 9.77779H18.5459C18.0399 9.77779 17.6292 10.1885 17.6292 10.6945C17.6292 11.2005 18.0399 11.6111 18.5459 11.6111H19.5077C19.0476 16.068 15.2709 19.5556 10.6943 19.5556Z" fill="#35B2F9"/>
<path fill-rule="evenodd" clip-rule="evenodd" d="M5.29467 3.795C4.92922 2.61922 3.95939 1.08533 3.48456 0.3795C3.14356 -0.1265 2.30389 -0.1265 1.96289 0.3795C1.49233 1.07983 0.5335 2.59539 0.161333 3.76689C0.129556 3.86589 0.0922778 3.96183 0.0715 4.06572C0.0275 4.25028 0 4.42383 0 4.57783C0 6.07994 1.22161 7.30156 2.72372 7.30156C4.22583 7.30156 5.44744 6.07994 5.44744 4.57783C5.44744 4.42383 5.41994 4.24906 5.37594 4.06328C5.357 3.971 5.32278 3.88361 5.29467 3.795ZM2.72325 5.46823C2.66336 5.46823 2.6047 5.46151 2.54786 5.45051C2.15064 5.36923 1.85059 5.01662 1.85059 4.59495C1.85059 4.11401 2.24231 3.72351 2.72325 3.72351C3.2042 3.72351 3.59592 4.11401 3.59592 4.59495C3.59592 5.01662 3.29586 5.36923 2.89864 5.45051C2.84181 5.46151 2.78314 5.46823 2.72325 5.46823Z" transform="translate(8.03418 7.32416)" fill="#35B2F9"/>
</svg>
