<svg width="21" height="18" viewBox="0 0 21 18" fill="none" xmlns="http://www.w3.org/2000/svg">
<path fill-rule="evenodd" clip-rule="evenodd" d="M10.3089 16.1137H1.84904V1.85303H10.3398V5.14688C10.3398 5.65798 10.7479 6.07446 11.2488 6.07446C11.7497 6.07446 12.1579 5.65798 12.1579 5.14688V0H0V18H12.1579V12.8199C12.1579 12.3088 11.7497 11.8923 11.2488 11.8923C10.7479 11.8923 10.3398 12.3088 10.3398 12.8199V16.1137H10.3089Z" fill="#35B2F9"/>
<path fill-rule="evenodd" clip-rule="evenodd" d="M8.45821 0.274885C8.06678 0.641808 8.06678 1.19321 8.45821 1.52993L10.6792 3.61188H0.947445C0.425392 3.61188 0 4.01063 0 4.5C0 4.98937 0.425392 5.38812 0.947445 5.38812H10.7441L8.52265 7.47007C8.13166 7.83699 8.13166 8.3884 8.52265 8.72511C8.91408 9.09163 9.50232 9.09163 9.86109 8.72511L14.3684 4.5L9.86109 0.274885C9.4701 -0.0916285 8.84921 -0.0916285 8.45821 0.274885Z" transform="translate(6.63184 4.5)" fill="#35B2F9"/>
</svg>
