<svg width="23" height="23" viewBox="0 0 23 23" fill="none" xmlns="http://www.w3.org/2000/svg">
<path d="M1.75152 1.28558L1.75197 1.28602C2.22131 1.75718 2.76435 2.14868 3.35974 2.44502C3.61745 2.57294 3.72274 2.88562 3.59486 3.14346L3.59485 3.14347C3.46693 3.40132 3.15422 3.50664 2.89636 3.37872L2.89625 3.37867C2.19939 3.03212 1.5638 2.57409 1.01457 2.02276C0.60715 1.61734 0.250932 1.1636 -0.0461864 0.671591M1.75152 1.28558L-0.0461864 0.671591M1.75152 1.28558C1.4041 0.940303 1.10031 0.553826 0.846919 0.134663C0.702822 -0.113773 0.384782 -0.198767 0.135867 -0.0552639C-0.113427 0.0884573 -0.198956 0.406969 -0.0553787 0.656248L1.75152 1.28558ZM-0.0461864 0.671591C-0.0463248 0.671361 -0.0464632 0.671132 -0.0466015 0.670903L0.0604083 0.606297L-0.0457352 0.672317C-0.0458841 0.672077 -0.0460345 0.671835 -0.0461864 0.671591Z" transform="translate(3.9668 16.3873)" fill="#35B2F9" stroke="#35B2F9" stroke-width="0.25"/>
<path d="M0.917192 7.12938V7.00438H0.792192H0H-0.12523L-0.125 7.12961C-0.122824 8.3134 0.707032 9.32853 1.85548 9.5735V10.298V10.423H1.98048H2.77267H2.89767V10.298V9.57299C4.20085 9.28876 5.0591 8.024 4.82691 6.69793C4.61829 5.50645 3.58696 4.6349 2.3773 4.62792H2.37658C1.57058 4.62792 0.917192 3.97455 0.917192 3.16861C0.917192 2.36267 1.57058 1.70931 2.37658 1.70931C3.18257 1.70931 3.83596 2.36267 3.83596 3.16861V3.29361H3.96096H4.75315H4.87838L4.87815 3.16838C4.87597 1.98459 4.04612 0.969461 2.89767 0.724493V0V-0.125H2.77267H1.98048H1.85548V0V0.724997C0.552303 1.00923 -0.30595 2.27399 -0.0737629 3.60006C0.134859 4.79154 1.16619 5.66309 2.37585 5.67007H2.37658C3.18257 5.67007 3.83596 6.32344 3.83596 7.12938C3.83596 7.93532 3.18257 8.58869 2.37658 8.58869C1.57058 8.58869 0.917192 7.93532 0.917192 7.12938Z" transform="translate(7.73438 8.13136)" fill="#35B2F9" stroke="#35B2F9" stroke-width="0.25"/>
<path d="M0.728996 -0.00588246L0.728793 -0.00604956C0.506183 -0.189206 0.177173 -0.157343 -0.00604089 0.0653162C-0.189182 0.287886 -0.157354 0.616823 0.0652235 0.800047C0.476229 1.13895 0.853584 1.51667 1.19207 1.92799C1.37455 2.15055 1.70284 2.18298 1.92541 2.0006C2.14806 1.81815 2.18054 1.4898 1.99811 1.2672L1.99803 1.26711C1.6169 0.802991 1.19195 0.376653 0.728996 -0.00588224L0.728996 -0.00588246Z" transform="translate(16.8418 4.576)" fill="#35B2F9" stroke="#35B2F9" stroke-width="0.25"/>
<path d="M0.279466 9.09329C0.339425 9.30371 0.558615 9.42575 0.769041 9.3658C0.979467 9.30584 1.10151 9.08666 1.04155 8.87624C0.0780519 5.51286 2.02363 2.00531 5.38717 1.0418C7.59966 0.408028 9.98183 1.02398 11.6098 2.65071L12.1703 2.09027C9.38997 -0.693906 4.87893 -0.697173 2.09458 2.08299C1.79741 2.3797 1.52707 2.7021 1.28674 3.04639C0.0528006 4.80562 -0.317549 7.02914 0.279466 9.09329ZM0.279466 9.09329L0.159252 9.12755C0.159272 9.12762 0.159291 9.12769 0.159311 9.12776C0.238265 9.40441 0.526515 9.56487 0.803294 9.48601C1.08008 9.40715 1.24066 9.11884 1.16177 8.84199L1.16172 8.84182C0.217232 5.54481 2.12441 2.10646 5.42159 1.16197C7.59043 0.5407 9.9256 1.1445 11.5214 2.73913L11.5215 2.73918C11.6692 2.88665 11.8079 3.03902 11.9375 3.19638L11.9376 3.19646C13.8978 5.57171 13.8106 9.02706 11.734 11.3005C11.7298 11.3044 11.7264 11.3079 11.7243 11.3101L11.7188 11.3156L11.7187 11.3155L11.7159 11.3184L11.7088 11.3255L11.7087 11.3255L11.7085 11.3257L11.7077 11.3265L11.7043 11.3297C11.7016 11.3322 11.6963 11.3372 11.6907 11.3433L11.6907 11.3433L11.6892 11.345C11.6368 11.4044 11.5817 11.4636 11.5216 11.523L11.5211 11.5235C10.0556 12.9873 7.95705 13.6245 5.92511 13.2226C5.64285 13.1666 5.36859 13.3501 5.31263 13.6324C5.25668 13.9147 5.44016 14.1889 5.72248 14.2449L5.72249 14.2449C8.09594 14.7151 10.5476 13.9711 12.2594 12.2612L12.1711 12.1728M0.279466 9.09329L12.2585 2.00169M12.2585 2.00169C9.42937 -0.83108 4.83938 -0.834322 2.00625 1.99453M12.2585 2.00169L2.00625 1.99453M12.2585 2.00169C15.0246 4.74492 15.1174 9.18716 12.4683 12.0435C12.4579 12.0548 12.447 12.0657 12.4355 12.0762C12.4294 12.0828 12.4233 12.0893 12.4172 12.0959C12.3671 12.1499 12.3153 12.2057 12.2592 12.2615L12.1711 12.1728M2.00625 1.99453C2.00625 1.99453 2.00626 1.99453 2.00626 1.99453L2.09318 2.08158L2.00625 1.99453ZM12.1711 12.1728C10.4887 13.8532 8.07934 14.5844 5.74678 14.1223L12.3766 11.9585C12.3675 11.9685 12.3579 11.978 12.3477 11.987C12.3403 11.995 12.3328 12.0031 12.3254 12.0111C12.2752 12.0651 12.2252 12.119 12.1711 12.1728Z" transform="translate(2.98242 6.14917)" fill="#35B2F9" stroke="#35B2F9" stroke-width="0.25"/>
<path d="M17.77 6.56157C17.6366 6.30655 17.7352 5.9917 17.9902 5.85831C18.2444 5.72536 18.558 5.82282 18.6922 6.076C19.8108 8.01298 20.1824 10.2788 19.7607 12.4517C20.2301 11.405 20.4741 10.267 20.4719 9.11198V9.11178C20.4714 7.60462 20.0554 6.12682 19.2695 4.84077C17.0939 1.28022 12.6371 -0.0331597 8.92776 1.6318C11.1185 1.2049 13.4038 1.58389 15.3521 2.72087L15.3572 2.7238L15.3571 2.72391C15.5827 2.87001 15.6601 3.16376 15.5358 3.4021C15.4028 3.65732 15.0881 3.7563 14.8329 3.62331L14.8275 3.62052L14.8276 3.62039C13.5735 2.88785 12.1469 2.50232 10.6945 2.50349L10.6941 2.50349C9.53833 2.50068 8.3995 2.74527 7.35265 3.21611C8.86117 2.92214 10.4252 3.00859 11.9011 3.47551C16.4163 4.90396 19.0609 9.48251 18.1785 14.022C19.2375 11.6475 19.1116 8.88457 17.7903 6.59708C17.7832 6.58568 17.7764 6.57383 17.77 6.56157ZM17.77 6.56157C17.77 6.56156 17.77 6.56154 17.77 6.56153L17.8807 6.50363L17.77 6.56157ZM21.514 9.11159C21.5151 4.01142 17.3812 -0.123896 12.2808 -0.125C9.43573 -0.125601 6.74942 1.18507 4.99907 3.42723C4.40953 3.88618 3.87927 4.41657 3.42046 5.00617C-0.591312 8.14401 -1.30558 13.9391 1.82697 17.9574C4.96272 21.9798 10.7658 22.6987 14.7884 19.5631C15.3838 19.099 15.92 18.5637 16.3851 17.9691C16.9759 17.5063 17.508 16.9729 17.9694 16.381C20.2124 14.6374 21.5215 11.953 21.514 9.11159ZM21.514 9.11159C21.514 9.11165 21.514 9.11171 21.514 9.11177L21.389 9.11174L21.514 9.11141C21.514 9.11147 21.514 9.11153 21.514 9.11159ZM4.10997 5.78869L4.11007 5.78861C4.39324 5.57017 4.69011 5.37012 4.99888 5.18971C8.91841 2.92264 13.9338 4.26193 16.2011 8.18122C17.6701 10.7205 17.6704 13.8511 16.2018 16.3907C14.7305 18.9142 12.0311 20.4681 9.10988 20.473C4.58507 20.474 0.916116 16.807 0.914896 12.2825C0.914214 9.73933 2.09469 7.34012 4.10997 5.78869Z" transform="translate(1.00098 1)" fill="#35B2F9" stroke="#35B2F9" stroke-width="0.25"/>
</svg>
