<svg width="17" height="18" viewBox="0 0 17 18" fill="none" xmlns="http://www.w3.org/2000/svg">
<path fill-rule="evenodd" clip-rule="evenodd" d="M7.74828 3.47999C9.37696 3.47999 10.4756 4.20998 11.102 4.81998L13.5499 2.33999C12.0465 0.89 10.0901 0 7.74828 0C4.35601 0 1.42631 2.01999 0 4.95998L2.80442 7.21998C3.50794 5.04998 5.45465 3.47999 7.74828 3.47999Z" transform="translate(0.925293)" fill="#EA4335"/>
<path fill-rule="evenodd" clip-rule="evenodd" d="M8.32653 1.83999C8.32653 1.1 8.26869 0.559998 8.14345 0H0V3.33998H4.78004C4.68367 4.16998 4.16327 5.41998 3.0068 6.25997L5.74376 8.45997C7.38206 6.88997 8.32653 4.57999 8.32653 1.83999Z" transform="translate(8.67334 7.35995)" fill="#4285F4"/>
<path fill-rule="evenodd" clip-rule="evenodd" d="M3.73923 5.81998C3.55612 5.25998 3.45011 4.65998 3.45011 4.03999C3.45011 3.41999 3.55612 2.81999 3.72959 2.25999L0.925172 0C0.337302 1.21999 0 2.58999 0 4.03999C0 5.48998 0.337302 6.85997 0.925172 8.07996L3.73923 5.81998Z" transform="translate(0 4.95996)" fill="#FBBC05"/>
<path fill-rule="evenodd" clip-rule="evenodd" d="M7.73867 7.21998C10.0805 7.21998 12.0465 6.41997 13.4824 5.03998L10.7455 2.83999C10.0131 3.36999 9.03002 3.73998 7.73867 3.73998C5.44501 3.73998 3.4983 2.16999 2.80442 0L0 2.25999C1.42631 5.19998 4.34637 7.21998 7.73867 7.21998Z" transform="translate(0.93457 10.78)" fill="#34A853"/>
</svg>
