<svg width="20" height="24" viewBox="0 0 20 24" fill="none" xmlns="http://www.w3.org/2000/svg">
<path fill-rule="evenodd" clip-rule="evenodd" d="M1.40316 0.94986C1.1455 0.94986 0.935547 1.1631 0.935547 1.42479V20.4218C0.935547 20.6835 1.1455 20.8968 1.40316 20.8968H16.3667C16.6244 20.8968 16.8343 20.6835 16.8343 20.4218V6.37067L11.497 0.94986H1.40316ZM16.3664 21.8466H1.40283C0.629405 21.8466 0 21.2074 0 20.4218V1.42478C0 0.639251 0.629405 0 1.40283 0H11.6903C11.8142 0 11.9334 0.0498673 12.0209 0.139153L17.6322 5.83827C17.7201 5.92708 17.7692 6.04819 17.7692 6.17404V20.4218C17.7692 21.2074 17.1398 21.8466 16.3664 21.8466Z" transform="translate(1 1)" fill="#007AFF" stroke="#35B2F9"/>
<path fill-rule="evenodd" clip-rule="evenodd" d="M6.07895 5.69912H0.467611C0.20949 5.69912 0 5.48635 0 5.22419V0H0.935223V4.74926H6.07895V5.69912Z" transform="translate(12.2227 1.94986)" fill="#007AFF" stroke="#35B2F9"/>
<path fill-rule="evenodd" clip-rule="evenodd" d="M6.07895 0.949853H0.467611C0.20949 0.949853 0 0.737086 0 0.474926C0 0.212767 0.20949 0 0.467611 0H6.07895C6.33707 0 6.54656 0.212767 6.54656 0.474926C6.54656 0.737086 6.33707 0.949853 6.07895 0.949853Z" transform="translate(3.80566 8.1239)" fill="#007AFF"/>
<path d="M6.07895 0.949853H0.467611C0.20949 0.949853 0 0.737086 0 0.474926C0 0.212767 0.20949 0 0.467611 0H6.07895C6.33707 0 6.54656 0.212767 6.54656 0.474926C6.54656 0.737086 6.33707 0.949853 6.07895 0.949853" transform="translate(3.80566 8.1239)" stroke="#35B2F9"/>
<path fill-rule="evenodd" clip-rule="evenodd" d="M11.6903 0.949853H0.467611C0.20949 0.949853 0 0.737086 0 0.474926C0 0.212767 0.20949 0 0.467611 0H11.6903C11.9484 0 12.1579 0.212767 12.1579 0.474926C12.1579 0.737086 11.9484 0.949853 11.6903 0.949853Z" transform="translate(3.80566 10.9734)" fill="#007AFF"/>
<path d="M11.6903 0.949853H0.467611C0.20949 0.949853 0 0.737086 0 0.474926C0 0.212767 0.20949 0 0.467611 0H11.6903C11.9484 0 12.1579 0.212767 12.1579 0.474926C12.1579 0.737086 11.9484 0.949853 11.6903 0.949853" transform="translate(3.80566 10.9734)" stroke="#35B2F9"/>
<path fill-rule="evenodd" clip-rule="evenodd" d="M11.6903 0.949853H0.467611C0.20949 0.949853 0 0.737086 0 0.474926C0 0.212767 0.20949 0 0.467611 0H11.6903C11.9484 0 12.1579 0.212767 12.1579 0.474926C12.1579 0.737086 11.9484 0.949853 11.6903 0.949853Z" transform="translate(3.80566 13.823)" fill="#007AFF"/>
<path d="M11.6903 0.949853H0.467611C0.20949 0.949853 0 0.737086 0 0.474926C0 0.212767 0.20949 0 0.467611 0H11.6903C11.9484 0 12.1579 0.212767 12.1579 0.474926C12.1579 0.737086 11.9484 0.949853 11.6903 0.949853" transform="translate(3.80566 13.823)" stroke="#35B2F9"/>
<path fill-rule="evenodd" clip-rule="evenodd" d="M11.6903 0.949853H0.467611C0.20949 0.949853 0 0.737086 0 0.474926C0 0.212767 0.20949 0 0.467611 0H11.6903C11.9484 0 12.1579 0.212767 12.1579 0.474926C12.1579 0.737086 11.9484 0.949853 11.6903 0.949853Z" transform="translate(3.80566 16.6726)" fill="#007AFF"/>
<path d="M11.6903 0.949853H0.467611C0.20949 0.949853 0 0.737086 0 0.474926C0 0.212767 0.20949 0 0.467611 0H11.6903C11.9484 0 12.1579 0.212767 12.1579 0.474926C12.1579 0.737086 11.9484 0.949853 11.6903 0.949853" transform="translate(3.80566 16.6726)" stroke="#35B2F9"/>
</svg>
