<svg width="235" height="235" viewBox="0 0 235 235" fill="none" xmlns="http://www.w3.org/2000/svg">
<path fill-rule="evenodd" clip-rule="evenodd" d="M87.7782 175.207C136.257 175.207 175.556 135.985 175.556 87.6034C175.556 39.2214 136.257 0 87.7782 0C39.2997 0 0 39.2214 0 87.6034C0 135.985 39.2997 175.207 87.7782 175.207Z" transform="translate(32.2236 31.3942)" fill="#F86624"/>
<path fill-rule="evenodd" clip-rule="evenodd" d="M0.0366966 83.0545C0.0122213 83.9005 -1.09095e-05 84.7495 7.30067e-09 85.6016C-0.000186083 132.878 38.0283 171.203 84.939 171.203C131.85 171.203 169.878 132.878 169.878 85.6018C169.879 38.3252 131.85 4.96603e-05 84.9394 0C84.219 6.34078e-05 83.5008 0.00913482 82.7847 0.0271624L82.785 83.0544L0.0366966 83.0545Z" transform="matrix(0.848522 0.529159 -0.530679 0.847573 90.8545 0)" fill="#F9C80E"/>
<path fill-rule="evenodd" clip-rule="evenodd" d="M0.0634766 84.2348C0.0214844 85.3524 0 86.4754 0 87.6034C0 135.985 39.2998 175.207 87.7783 175.207C136.257 175.207 175.557 135.985 175.557 87.6034C175.557 39.2214 136.257 0 87.7783 0C87.3184 0 86.8594 0.00354004 86.4014 0.0105591V84.2348H0.0634766Z" transform="translate(32.0371 30.9999)" fill="#662E9B"/>
<path fill-rule="evenodd" clip-rule="evenodd" d="M61.3834 122.522C95.2845 122.522 122.767 95.0947 122.767 61.2611C122.767 27.4275 95.2845 0 61.3834 0C27.4823 0 0 27.4275 0 61.2611C0 95.0947 27.4823 122.522 61.3834 122.522Z" transform="translate(58.3096 57.4283)" fill="white"/>
</svg>
