<svg width="16" height="16" viewBox="0 0 16 16" fill="none" xmlns="http://www.w3.org/2000/svg">
<path fill-rule="evenodd" clip-rule="evenodd" d="M1.01758 6.44761L11.8269 11.0498L13.0523 0.783325L1.01758 6.44761ZM12.0819 11.7643C12.0393 11.7643 11.9971 11.7556 11.9576 11.7391L0.179931 6.7246C0.072671 6.67891 0.00248079 6.57799 4.99605e-05 6.46608C-0.00207702 6.35417 0.0638593 6.25094 0.169297 6.2012L13.2824 0.0300013C13.3818 -0.0168444 13.5006 -0.00845846 13.5917 0.0525566C13.6829 0.113283 13.7315 0.216517 13.719 0.321775L12.3836 11.5078C12.3727 11.5992 12.3165 11.6807 12.2323 11.7261C12.1858 11.7515 12.1338 11.7643 12.0819 11.7643Z" transform="translate(1 1.07797)" fill="#35B2F9" stroke="#35B2F9"/>
<path fill-rule="evenodd" clip-rule="evenodd" d="M0.303861 13.5695C0.27621 13.5695 0.248255 13.5658 0.220605 13.5585C0.089036 13.5227 -0.000904696 13.4079 6.8658e-06 13.278L0.0379886 8.65131C0.0385963 8.58219 0.0653354 8.51568 0.11304 8.46363L7.77441 0.0990726C7.88501 -0.0212226 8.07705 -0.0336569 8.20345 0.071023C8.32985 0.176281 8.34292 0.358748 8.23262 0.479043L0.645088 8.76293L0.616222 12.2379L2.29046 9.62639C2.37827 9.4899 2.56514 9.44681 2.70826 9.5301C2.85137 9.61309 2.89664 9.79151 2.80913 9.92742L0.563352 13.431C0.507139 13.5186 0.407779 13.5695 0.303861 13.5695Z" transform="translate(6.41016 1.07883)" fill="#35B2F9"/>
<path d="M0.303861 13.5695C0.27621 13.5695 0.248255 13.5658 0.220605 13.5585C0.089036 13.5227 -0.000904695 13.4079 6.8658e-06 13.278L0.0379886 8.65131C0.0385963 8.58219 0.0653354 8.51568 0.11304 8.46363L7.77441 0.0990726C7.88501 -0.0212226 8.07705 -0.0336569 8.20345 0.071023C8.32985 0.176281 8.34292 0.358748 8.23262 0.479043L0.645088 8.76292L0.616222 12.2379L2.29046 9.62639C2.37827 9.4899 2.56514 9.44681 2.70826 9.5301C2.85137 9.61309 2.89664 9.79151 2.80913 9.92742L0.563352 13.431C0.507139 13.5186 0.407779 13.5695 0.303861 13.5695" transform="translate(6.41016 1.07883)" stroke="#35B2F9"/>
</svg>
