<svg width="16" height="14" viewBox="0 0 16 14" fill="none" xmlns="http://www.w3.org/2000/svg">
<path fill-rule="evenodd" clip-rule="evenodd" d="M0.596964 2H9.40352C9.73366 2 10 1.55267 10 1C10 0.448 9.73173 0 9.40352 0H0.596964C0.266338 0 0 0.448 0 1C0 1.55267 0.268271 2 0.596964 2Z" transform="translate(6)" fill="white"/>
<path fill-rule="evenodd" clip-rule="evenodd" d="M15.1579 0H0.842105C0.427923 0 0 0.448 0 1C0 1.55267 0.427923 2 0.842105 2H15.1579C15.5721 2 16 1.55267 16 1C16 0.448 15.5721 0 15.1579 0Z" transform="translate(0 6)" fill="white"/>
<path fill-rule="evenodd" clip-rule="evenodd" d="M9 0H1C0.266338 0 0 0.447333 0 1C0 1.552 0.268271 2 1 2H9C9.73366 2 10 1.552 10 1C10 0.447333 9.73366 0 9 0Z" transform="translate(6 12)" fill="white"/>
</svg>
